<?xml version="1.0" encoding="utf-8"?>
<!-- Generator: Adobe Illustrator 27.2.0, SVG Export Plug-In . SVG Version: 6.00 Build 0)  -->
<svg version="1.1" id="Layer_1" xmlns="http://www.w3.org/2000/svg" xmlns:xlink="http://www.w3.org/1999/xlink" x="0px" y="0px"
	 viewBox="0 0 164 38" style="enable-background:new 0 0 164 38;" xml:space="preserve">
<style type="text/css">
	.st0{fill:#FFFFFF;}
	.st1{fill:url(#SVGID_1_);}
	.st2{fill:none;stroke:#D0D5DD;stroke-width:0.2;}
	.st3{fill:url(#SVGID_00000061438479721022339400000010238335508331361423_);}
	.st4{fill:url(#SVGID_00000096753782329551311480000006140358536650928514_);}
	.st5{opacity:0.31;fill:url(#SVGID_00000080198473817775863470000009193733137162142355_);enable-background:new    ;}
</style>
<g>
	<path class="st0" d="M11,2.1h16c4.4,0,7.9,3.5,7.9,7.9v16c0,4.4-3.5,7.9-7.9,7.9H11c-4.4,0-7.9-3.5-7.9-7.9V10
		C3.1,5.6,6.6,2.1,11,2.1z"/>
	
		<linearGradient id="SVGID_1_" gradientUnits="userSpaceOnUse" x1="19" y1="38" x2="19" y2="6" gradientTransform="matrix(1 0 0 -1 0 40)">
		<stop  offset="0" style="stop-color:#FFFFFF"/>
		<stop  offset="1" style="stop-color:#D0D5DD"/>
	</linearGradient>
	<path class="st1" d="M11,2.1h16c4.4,0,7.9,3.5,7.9,7.9v16c0,4.4-3.5,7.9-7.9,7.9H11c-4.4,0-7.9-3.5-7.9-7.9V10
		C3.1,5.6,6.6,2.1,11,2.1z"/>
	<path class="st2" d="M11,2.1h16c4.4,0,7.9,3.5,7.9,7.9v16c0,4.4-3.5,7.9-7.9,7.9H11c-4.4,0-7.9-3.5-7.9-7.9V10
		C3.1,5.6,6.6,2.1,11,2.1z"/>
	
		<linearGradient id="SVGID_00000065060683726508977090000009429696459682757813_" gradientUnits="userSpaceOnUse" x1="10.199" y1="15.7862" x2="27.8348" y2="33.422" gradientTransform="matrix(1 0 0 -1 0 40)">
		<stop  offset="0" style="stop-color:#0076C1"/>
		<stop  offset="7.370000e-02" style="stop-color:#0B82C6"/>
		<stop  offset="0.2766" style="stop-color:#269ED3"/>
		<stop  offset="0.4546" style="stop-color:#36AFDA"/>
		<stop  offset="0.587" style="stop-color:#3CB5DD"/>
	</linearGradient>
	<path style="fill:url(#SVGID_00000065060683726508977090000009429696459682757813_);" d="M18.4,13.2c4.4-1.7,9.1-0.4,11.3,1.7
		c0.5,0.5,0.9,0.9,1.2,1.4c0.2-1.1,0.2-2.1,0-3.2c-0.7-3.8-4.2-5.9-7.4-4.8c-3.2,1.1-4.4,3.2-4.4,3.2s-1.2-2.1-4.4-3.2
		c-3.2-1.1-6.8,1-7.4,4.8c-0.5,2.8,0.5,5.8,2.5,8.5c0.4,0.1,0.9,0.3,1.3,0.3c2.8,0.4,3.9-0.4,5.1-0.9c0.8-0.3,1.4,0,1.4,0.3
		c0,0.4-1.6,1.1-1.3,1.3c1.3,0.6,3,0.6,4.2-0.5c1.5-1.3,2.1-0.4,2.1-0.4s-0.8,1.9-3.1,2.9c-1.9,0.8-3.9,1-5.7,0.8
		c1.6,1.1,3.4,2.1,5.4,2.7c5.7-1.9,9.9-6,11.4-10.3c-1-1-2.2-1.6-3.7-1.8c-2.8-0.4-3.9,0.3-5.1,0.8c-0.8,0.3-1.4-0.1-1.4-0.3
		c0.1-0.4,1.6-1.1,1.3-1.3c-1.3-0.6-3-0.7-4.2,0.4c-1.6,1.3-2.1,0.4-2.1,0.4S16,14.1,18.4,13.2z M17.3,18.5h1.1v-1.1h1.3v1.1h1.1
		v1.3h-1.1v1.1h-1.3v-1.1h-1.1V18.5z"/>
	
		<linearGradient id="SVGID_00000053530931547730164570000008945740056008198076_" gradientUnits="userSpaceOnUse" x1="10.1386" y1="15.7465" x2="27.8272" y2="33.4351" gradientTransform="matrix(1 0 0 -1 0 40)">
		<stop  offset="0" style="stop-color:#00A482"/>
		<stop  offset="1" style="stop-color:#79DD83"/>
	</linearGradient>
	<path style="fill:url(#SVGID_00000053530931547730164570000008945740056008198076_);" d="M17.3,18.5h1.1v-1.1h1.3v1.1h1.1v1.3h-1.1
		c1.6,0.8,4.6,2,8.2,2.6c1.2-1.4,2.1-2.9,2.6-4.4c-1-1-2.2-1.6-3.7-1.8c-2.8-0.4-3.9,0.3-5.1,0.8c-0.8,0.3-1.4-0.1-1.4-0.3
		c0.1-0.4,1.6-1.1,1.3-1.3c-1.3-0.6-3-0.7-4.2,0.4c-1.6,1.3-2.1,0.4-2.1,0.4s0.8-1.9,3.1-2.8c4.4-1.7,9.1-0.4,11.3,1.7
		c0.5,0.5,0.9,0.9,1.2,1.4c0.2-1.1,0.2-2.1,0-3.2c-0.7-3.8-4.2-5.9-7.4-4.8c-3.2,1.1-4.4,3.2-4.4,3.2s-1.2-2.1-4.4-3.2
		c-1.8-0.6-3.8-0.2-5.2,1c0.7,1.5,1.5,2.8,3.8,5.6C15,17.1,17.3,18.5,17.3,18.5z"/>
	
		<linearGradient id="SVGID_00000094608616965535418210000003647939427119526539_" gradientUnits="userSpaceOnUse" x1="24.8609" y1="26.4927" x2="28.5289" y2="29.8868" gradientTransform="matrix(1 0 0 -1 0 40)">
		<stop  offset="0" style="stop-color:#00A482"/>
		<stop  offset="1" style="stop-color:#79DD83"/>
	</linearGradient>
	<path style="opacity:0.31;fill:url(#SVGID_00000094608616965535418210000003647939427119526539_);enable-background:new    ;" d="
		M27.3,9.6c-3-1.5-6.1,0.8-7.1,2.1c1.7-0.4,3.2-0.5,5.1-0.1c2.8,0.6,3.8,1.6,5.1,3.1C30.1,11.9,28.4,10.2,27.3,9.6z"/>
</g>
<path class="st0" d="M59.4,25.2V12.1h3V15c-0.3-0.6-0.6-1.2-0.9-1.7c0.1-0.1,0.2-0.2,0.4-0.2c1.4-0.9,2.9-1.1,4.1-1.1h0.8v2.8h-1.1
	c-0.9,0-1.6,0.3-2.2,0.8c-0.5,0.5-0.8,1.3-0.8,2.3v7.3H59.4z M70.9,26.3c-0.9,0-1.7-0.2-2.4-0.5c-0.7-0.3-1.2-0.7-1.6-1.3
	c-0.4-0.6-0.6-1.2-0.6-2c0-0.7,0.2-1.4,0.5-1.9c0.3-0.6,0.8-1.1,1.5-1.4s1.5-0.7,2.5-0.8l4.3-0.7v2.4l-3.7,0.6
	c-0.6,0.1-1.1,0.3-1.4,0.6s-0.5,0.7-0.5,1.1c0,0.4,0.2,0.8,0.5,1.1c0.4,0.3,0.8,0.4,1.3,0.4c0.7,0,1.2-0.1,1.7-0.4
	c0.5-0.3,0.9-0.7,1.2-1.2c0.3-0.5,0.4-1,0.4-1.6v-3.4c0-0.6-0.2-1-0.7-1.4c-0.4-0.4-1-0.6-1.7-0.6c-0.7,0-1.3,0.2-1.8,0.6
	c-0.5,0.4-0.9,0.8-1.1,1.4l-2.6-1.2c0.3-0.7,0.7-1.3,1.2-1.8c0.6-0.5,1.2-0.9,2-1.2s1.6-0.4,2.4-0.4c1.1,0,2,0.2,2.8,0.6
	c0.8,0.4,1.4,0.9,1.9,1.6c0.5,0.7,0.7,1.5,0.7,2.4V26h-3v-2.2l0.7,0c-0.3,0.6-0.7,1-1.2,1.4c-0.5,0.4-1,0.7-1.6,0.9
	C72.2,26.2,71.6,26.3,70.9,26.3z M81.7,26V8.1h6.7c1.2,0,2.3,0.2,3.2,0.7c0.9,0.4,1.7,1.1,2.2,1.9c0.5,0.8,0.8,1.8,0.8,3
	c0,1.2-0.3,2.2-0.8,3c-0.5,0.8-1.3,1.5-2.2,1.9c-0.9,0.4-2,0.7-3.2,0.7h-3.4V26H81.7z M84.9,16.5h3.5c0.6,0,1.1-0.1,1.5-0.3
	c0.4-0.2,0.8-0.6,1-1c0.2-0.4,0.4-0.9,0.4-1.4c0-0.6-0.1-1-0.4-1.4c-0.2-0.4-0.6-0.7-1-1C89.5,11.1,89,11,88.4,11h-3.5V16.5z
	 M101.6,26.3c-1,0-1.9-0.2-2.6-0.7c-0.7-0.4-1.3-1.1-1.7-1.9c-0.4-0.8-0.6-1.7-0.6-2.8v-8h3.1v7.7c0,0.5,0.1,1,0.3,1.4
	c0.2,0.4,0.5,0.7,0.9,1c0.4,0.2,0.9,0.3,1.4,0.3c0.5,0,1-0.1,1.4-0.3c0.4-0.2,0.7-0.6,0.9-1c0.2-0.4,0.3-0.9,0.3-1.5v-7.7h3.1V26h-3
	v-2.6l0.3,0.5c-0.3,0.8-0.8,1.4-1.5,1.8C103.4,26.1,102.6,26.3,101.6,26.3z M111.2,26V7.8h3.1V26H111.2z M122.2,26.3
	c-1.4,0-2.6-0.3-3.6-1c-1-0.7-1.7-1.6-2.1-2.7l2.4-1.1c0.3,0.7,0.8,1.3,1.4,1.7c0.6,0.4,1.3,0.6,2,0.6c0.6,0,1-0.1,1.4-0.4
	c0.3-0.3,0.5-0.6,0.5-1c0-0.3-0.1-0.5-0.2-0.6c-0.1-0.2-0.3-0.3-0.6-0.4c-0.2-0.1-0.5-0.2-0.7-0.3l-2.1-0.6
	c-1.1-0.3-1.9-0.8-2.5-1.5c-0.6-0.7-0.8-1.4-0.8-2.3c0-0.8,0.2-1.5,0.6-2.1c0.4-0.6,1-1.1,1.7-1.4c0.7-0.3,1.6-0.5,2.5-0.5
	c1.2,0,2.3,0.3,3.3,0.9s1.6,1.4,2,2.5l-2.4,1.1c-0.2-0.6-0.6-1.1-1.1-1.4c-0.5-0.4-1.1-0.5-1.8-0.5c-0.5,0-0.9,0.1-1.2,0.4
	s-0.5,0.6-0.5,0.9c0,0.2,0.1,0.4,0.2,0.6c0.1,0.2,0.3,0.3,0.5,0.4c0.2,0.1,0.5,0.2,0.8,0.3l2.1,0.6c1.1,0.3,1.9,0.8,2.5,1.4
	c0.6,0.6,0.9,1.4,0.9,2.4c0,0.8-0.2,1.5-0.6,2.1c-0.4,0.6-1,1.1-1.7,1.4C124.1,26.1,123.2,26.3,122.2,26.3z M135.8,26.3
	c-1.3,0-2.5-0.3-3.5-0.9s-1.8-1.4-2.4-2.5c-0.6-1-0.8-2.2-0.8-3.5c0-1.3,0.3-2.5,0.8-3.5c0.6-1,1.4-1.8,2.3-2.4
	c1-0.6,2.1-0.9,3.3-0.9c1,0,1.9,0.2,2.7,0.5c0.8,0.3,1.4,0.8,2,1.4c0.5,0.6,1,1.3,1.2,2c0.3,0.8,0.4,1.6,0.4,2.4c0,0.2,0,0.5,0,0.7
	c0,0.2-0.1,0.4-0.1,0.6h-10.1V18h8.3l-1.5,1.1c0.1-0.7,0.1-1.4-0.1-2c-0.2-0.6-0.6-1-1.1-1.4c-0.5-0.3-1.1-0.5-1.8-0.5
	c-0.7,0-1.2,0.2-1.8,0.5c-0.5,0.3-0.9,0.8-1.2,1.4c-0.3,0.6-0.4,1.4-0.3,2.3c-0.1,0.8,0,1.5,0.3,2.1c0.3,0.6,0.7,1.1,1.2,1.4
	c0.6,0.3,1.2,0.5,1.9,0.5s1.3-0.2,1.8-0.5c0.5-0.3,0.9-0.7,1.2-1.2l2.5,1.2c-0.3,0.6-0.7,1.2-1.2,1.7c-0.5,0.5-1.2,0.9-1.9,1.1
	C137.5,26.2,136.7,26.3,135.8,26.3z M59.4,26.1V8h3.1v18.2H59.4z M54.2,26V13.8h3.1V26H54.2z M54.2,11.2v-3h3.1v3H54.2z M53.2,8.7
	c-0.9,9.7-3,17.3-5.7,17.5C43.6,26.4,37,8.7,40.8,8.4c0.9-0.1,2.5-0.1,2.5,0c-0.6,2.2,3,13.2,3.9,13.2c0.5,0,1.3-2.8,2.9-12.8"/>
</svg>
